<svg width="1500" height="500" viewBox="0 0 1500 500" fill="none" xmlns="http://www.w3.org/2000/svg">
<rect width="1500" height="500" fill="#101010"/>
<path d="M549.609 169.473L555.343 164.639C553.77 162.772 551.386 161.789 548.954 162.002C546.522 162.216 544.346 163.599 543.121 165.712L549.609 169.473ZM388.626 356.563L383.972 350.681C382.052 352.201 380.994 354.562 381.139 357.006C381.283 359.45 382.612 361.67 384.698 362.952L388.626 356.563ZM362.497 335.161L357.008 340.272C359.422 342.864 363.32 343.414 366.357 341.591L362.497 335.161ZM549.262 169.063L555.061 173.82C557.361 171.016 557.325 166.967 554.975 164.204L549.262 169.063ZM571.5 250C571.5 314.893 518.893 367.5 454 367.5V382.5C527.178 382.5 586.5 323.178 586.5 250H571.5ZM543.875 174.308C561.117 194.757 571.5 221.156 571.5 250H586.5C586.5 217.487 574.78 187.693 555.343 164.639L543.875 174.308ZM393.28 362.444C477.72 295.624 534.261 210.9 556.098 173.235L543.121 165.712C521.801 202.486 466.386 285.465 383.972 350.681L393.28 362.444ZM454 367.5C431.461 367.5 410.426 361.162 392.554 350.174L384.698 362.952C404.865 375.351 428.609 382.5 454 382.5V367.5ZM367.986 330.05C348.444 309.062 336.5 280.934 336.5 250H321.5C321.5 284.875 334.984 316.617 357.008 340.272L367.986 330.05ZM336.5 250C336.5 185.107 389.107 132.5 454 132.5V117.5C380.822 117.5 321.5 176.822 321.5 250H336.5ZM454 132.5C489.873 132.5 521.985 148.566 543.549 173.922L554.975 164.204C530.683 135.64 494.456 117.5 454 117.5V132.5ZM543.463 164.307C480.739 240.777 421.77 290.839 358.638 328.73L366.357 341.591C431.122 302.72 491.368 251.47 555.061 173.82L543.463 164.307Z" fill="url(#paint0_linear_2_2)"/>
<path d="M638.25 145H665.875V209H710V231H638.25V145ZM764.776 167V231H737.151V167H708.901V145H792.901V167H764.776ZM893.486 231H859.986L844.111 204.25H843.611L827.736 231H796.736L827.486 185.5L799.736 145H833.111L846.111 167H846.611L859.736 145H890.611L862.736 185.625L893.486 231Z" fill="#F0F0F0"/>
<path d="M630.19 269.636H636.422L645.921 286.167H646.312L655.811 269.636H662.043L648.851 291.724V306H643.382V291.724L630.19 269.636ZM673.793 306.55C671.236 306.55 669.005 305.964 667.099 304.793C665.193 303.621 663.714 301.981 662.66 299.874C661.607 297.767 661.08 295.305 661.08 292.488C661.08 289.659 661.607 287.185 662.66 285.066C663.714 282.947 665.193 281.302 667.099 280.13C669.005 278.958 671.236 278.372 673.793 278.372C676.35 278.372 678.581 278.958 680.487 280.13C682.393 281.302 683.872 282.947 684.926 285.066C685.979 287.185 686.506 289.659 686.506 292.488C686.506 295.305 685.979 297.767 684.926 299.874C683.872 301.981 682.393 303.621 680.487 304.793C678.581 305.964 676.35 306.55 673.793 306.55ZM673.811 302.094C675.468 302.094 676.841 301.656 677.93 300.78C679.019 299.904 679.824 298.738 680.345 297.282C680.878 295.826 681.144 294.222 681.144 292.47C681.144 290.73 680.878 289.132 680.345 287.676C679.824 286.208 679.019 285.031 677.93 284.143C676.841 283.255 675.468 282.811 673.811 282.811C672.142 282.811 670.757 283.255 669.656 284.143C668.567 285.031 667.756 286.208 667.224 287.676C666.703 289.132 666.442 290.73 666.442 292.47C666.442 294.222 666.703 295.826 667.224 297.282C667.756 298.738 668.567 299.904 669.656 300.78C670.757 301.656 672.142 302.094 673.811 302.094ZM709.708 294.69V278.727H715.035V306H709.815V301.277H709.531C708.904 302.733 707.897 303.946 706.512 304.917C705.139 305.876 703.429 306.355 701.381 306.355C699.629 306.355 698.078 305.97 696.729 305.201C695.391 304.42 694.338 303.266 693.569 301.739C692.811 300.212 692.432 298.324 692.432 296.075V278.727H697.741V295.435C697.741 297.294 698.256 298.773 699.286 299.874C700.316 300.975 701.653 301.526 703.299 301.526C704.293 301.526 705.281 301.277 706.264 300.78C707.258 300.283 708.081 299.531 708.732 298.525C709.395 297.519 709.72 296.24 709.708 294.69ZM722.169 306V278.727H727.3V283.06H727.584C728.081 281.592 728.957 280.438 730.212 279.597C731.478 278.745 732.911 278.319 734.509 278.319C734.84 278.319 735.231 278.331 735.681 278.354C736.142 278.378 736.503 278.408 736.764 278.443V283.521C736.551 283.462 736.172 283.397 735.627 283.326C735.083 283.243 734.538 283.202 733.994 283.202C732.739 283.202 731.62 283.468 730.638 284.001C729.667 284.522 728.898 285.25 728.33 286.185C727.762 287.108 727.477 288.161 727.477 289.345V306H722.169ZM766.078 306.55C763.521 306.55 761.29 305.964 759.384 304.793C757.479 303.621 755.999 301.981 754.945 299.874C753.892 297.767 753.365 295.305 753.365 292.488C753.365 289.659 753.892 287.185 754.945 285.066C755.999 282.947 757.479 281.302 759.384 280.13C761.29 278.958 763.521 278.372 766.078 278.372C768.635 278.372 770.866 278.958 772.772 280.13C774.678 281.302 776.158 282.947 777.211 285.066C778.265 287.185 778.791 289.659 778.791 292.488C778.791 295.305 778.265 297.767 777.211 299.874C776.158 301.981 774.678 303.621 772.772 304.793C770.866 305.964 768.635 306.55 766.078 306.55ZM766.096 302.094C767.753 302.094 769.126 301.656 770.215 300.78C771.304 299.904 772.109 298.738 772.63 297.282C773.163 295.826 773.429 294.222 773.429 292.47C773.429 290.73 773.163 289.132 772.63 287.676C772.109 286.208 771.304 285.031 770.215 284.143C769.126 283.255 767.753 282.811 766.096 282.811C764.427 282.811 763.042 283.255 761.941 284.143C760.852 285.031 760.041 286.208 759.509 287.676C758.988 289.132 758.727 290.73 758.727 292.47C758.727 294.222 758.988 295.826 759.509 297.282C760.041 298.738 760.852 299.904 761.941 300.78C763.042 301.656 764.427 302.094 766.096 302.094ZM790.026 289.807V306H784.717V278.727H789.813V283.166H790.151C790.778 281.722 791.76 280.562 793.098 279.686C794.447 278.81 796.146 278.372 798.194 278.372C800.052 278.372 801.68 278.763 803.077 279.544C804.473 280.313 805.557 281.462 806.326 282.989C807.095 284.516 807.48 286.404 807.48 288.653V306H802.171V289.292C802.171 287.315 801.656 285.77 800.626 284.658C799.597 283.533 798.182 282.971 796.383 282.971C795.152 282.971 794.057 283.237 793.098 283.77C792.151 284.303 791.399 285.084 790.843 286.114C790.299 287.132 790.026 288.363 790.026 289.807ZM826.354 306.55C823.667 306.55 821.353 305.976 819.412 304.828C817.482 303.668 815.991 302.04 814.938 299.945C813.896 297.838 813.375 295.37 813.375 292.541C813.375 289.748 813.896 287.286 814.938 285.155C815.991 283.024 817.459 281.361 819.341 280.165C821.235 278.97 823.448 278.372 825.982 278.372C827.52 278.372 829.012 278.627 830.456 279.136C831.9 279.645 833.196 280.444 834.344 281.533C835.493 282.622 836.398 284.036 837.061 285.776C837.724 287.504 838.055 289.606 838.055 292.08V293.962H816.376V289.984H832.853C832.853 288.588 832.569 287.351 832.001 286.273C831.433 285.184 830.634 284.326 829.604 283.699C828.586 283.071 827.39 282.758 826.017 282.758C824.526 282.758 823.223 283.125 822.111 283.859C821.01 284.581 820.158 285.528 819.554 286.7C818.962 287.86 818.666 289.12 818.666 290.482V293.589C818.666 295.412 818.986 296.962 819.625 298.241C820.276 299.519 821.182 300.496 822.342 301.17C823.502 301.833 824.857 302.165 826.408 302.165C827.414 302.165 828.331 302.023 829.16 301.739C829.988 301.443 830.705 301.005 831.308 300.425C831.912 299.845 832.374 299.129 832.693 298.276L837.718 299.182C837.316 300.661 836.594 301.958 835.552 303.07C834.522 304.171 833.226 305.029 831.663 305.645C830.113 306.249 828.343 306.55 826.354 306.55ZM877.615 285.386L872.803 286.238C872.602 285.622 872.282 285.036 871.844 284.48C871.418 283.924 870.838 283.468 870.104 283.113C869.371 282.758 868.453 282.58 867.352 282.58C865.849 282.58 864.594 282.918 863.588 283.592C862.582 284.255 862.079 285.113 862.079 286.167C862.079 287.078 862.416 287.812 863.091 288.369C863.766 288.925 864.855 289.381 866.358 289.736L870.69 290.73C873.2 291.31 875.07 292.204 876.301 293.411C877.532 294.619 878.148 296.187 878.148 298.116C878.148 299.75 877.674 301.206 876.727 302.484C875.792 303.751 874.484 304.745 872.803 305.467C871.134 306.189 869.199 306.55 866.997 306.55C863.943 306.55 861.451 305.899 859.522 304.597C857.593 303.283 856.409 301.419 855.971 299.004L861.102 298.223C861.422 299.561 862.079 300.573 863.073 301.259C864.067 301.934 865.364 302.271 866.962 302.271C868.702 302.271 870.093 301.91 871.134 301.188C872.176 300.454 872.697 299.561 872.697 298.507C872.697 297.655 872.377 296.939 871.738 296.359C871.111 295.779 870.146 295.341 868.844 295.045L864.227 294.033C861.682 293.453 859.8 292.529 858.581 291.263C857.374 289.996 856.77 288.392 856.77 286.451C856.77 284.841 857.22 283.433 858.119 282.225C859.019 281.018 860.262 280.077 861.848 279.402C863.434 278.715 865.251 278.372 867.299 278.372C870.246 278.372 872.567 279.011 874.259 280.29C875.952 281.556 877.071 283.255 877.615 285.386ZM896.716 278.727V282.989H881.819V278.727H896.716ZM885.814 272.193H891.123V297.992C891.123 299.022 891.277 299.797 891.584 300.318C891.892 300.827 892.289 301.176 892.774 301.366C893.271 301.543 893.81 301.632 894.39 301.632C894.816 301.632 895.189 301.603 895.508 301.543C895.828 301.484 896.077 301.437 896.254 301.401L897.213 305.787C896.905 305.905 896.467 306.024 895.899 306.142C895.331 306.272 894.621 306.343 893.768 306.355C892.372 306.379 891.069 306.13 889.862 305.609C888.655 305.089 887.678 304.284 886.932 303.195C886.187 302.106 885.814 300.738 885.814 299.093V272.193ZM913.783 306.55C911.227 306.55 908.995 305.964 907.089 304.793C905.184 303.621 903.704 301.981 902.651 299.874C901.597 297.767 901.07 295.305 901.07 292.488C901.07 289.659 901.597 287.185 902.651 285.066C903.704 282.947 905.184 281.302 907.089 280.13C908.995 278.958 911.227 278.372 913.783 278.372C916.34 278.372 918.571 278.958 920.477 280.13C922.383 281.302 923.863 282.947 924.916 285.066C925.97 287.185 926.496 289.659 926.496 292.488C926.496 295.305 925.97 297.767 924.916 299.874C923.863 301.981 922.383 303.621 920.477 304.793C918.571 305.964 916.34 306.55 913.783 306.55ZM913.801 302.094C915.458 302.094 916.831 301.656 917.92 300.78C919.009 299.904 919.814 298.738 920.335 297.282C920.868 295.826 921.134 294.222 921.134 292.47C921.134 290.73 920.868 289.132 920.335 287.676C919.814 286.208 919.009 285.031 917.92 284.143C916.831 283.255 915.458 282.811 913.801 282.811C912.132 282.811 910.747 283.255 909.646 284.143C908.557 285.031 907.746 286.208 907.214 287.676C906.693 289.132 906.433 290.73 906.433 292.47C906.433 294.222 906.693 295.826 907.214 297.282C907.746 298.738 908.557 299.904 909.646 300.78C910.747 301.656 912.132 302.094 913.801 302.094ZM932.422 316.227V278.727H937.607V283.148H938.051C938.359 282.58 938.803 281.923 939.383 281.178C939.963 280.432 940.768 279.781 941.797 279.224C942.827 278.656 944.189 278.372 945.881 278.372C948.083 278.372 950.048 278.929 951.776 280.041C953.504 281.154 954.86 282.758 955.842 284.853C956.836 286.948 957.334 289.469 957.334 292.417C957.334 295.364 956.842 297.892 955.86 299.999C954.877 302.094 953.528 303.71 951.812 304.846C950.095 305.97 948.136 306.533 945.934 306.533C944.277 306.533 942.922 306.254 941.868 305.698C940.827 305.142 940.01 304.491 939.418 303.745C938.826 302.999 938.371 302.336 938.051 301.756H937.731V316.227H932.422ZM937.625 292.364C937.625 294.281 937.903 295.962 938.459 297.406C939.016 298.85 939.821 299.981 940.874 300.798C941.928 301.603 943.218 302.005 944.745 302.005C946.331 302.005 947.657 301.585 948.722 300.744C949.787 299.892 950.592 298.738 951.137 297.282C951.693 295.826 951.971 294.187 951.971 292.364C951.971 290.564 951.699 288.949 951.155 287.516C950.622 286.084 949.817 284.954 948.74 284.125C947.675 283.296 946.343 282.882 944.745 282.882C943.206 282.882 941.904 283.279 940.839 284.072C939.785 284.865 938.986 285.972 938.442 287.392C937.897 288.812 937.625 290.47 937.625 292.364ZM996.951 285.386L992.139 286.238C991.938 285.622 991.618 285.036 991.18 284.48C990.754 283.924 990.174 283.468 989.44 283.113C988.706 282.758 987.789 282.58 986.688 282.58C985.185 282.58 983.93 282.918 982.924 283.592C981.918 284.255 981.415 285.113 981.415 286.167C981.415 287.078 981.752 287.812 982.427 288.369C983.102 288.925 984.191 289.381 985.694 289.736L990.026 290.73C992.536 291.31 994.406 292.204 995.637 293.411C996.868 294.619 997.484 296.187 997.484 298.116C997.484 299.75 997.01 301.206 996.063 302.484C995.128 303.751 993.82 304.745 992.139 305.467C990.47 306.189 988.535 306.55 986.333 306.55C983.279 306.55 980.787 305.899 978.858 304.597C976.929 303.283 975.745 301.419 975.307 299.004L980.438 298.223C980.758 299.561 981.415 300.573 982.409 301.259C983.403 301.934 984.7 302.271 986.298 302.271C988.038 302.271 989.429 301.91 990.47 301.188C991.512 300.454 992.033 299.561 992.033 298.507C992.033 297.655 991.713 296.939 991.074 296.359C990.446 295.779 989.482 295.341 988.18 295.045L983.563 294.033C981.018 293.453 979.136 292.529 977.917 291.263C976.71 289.996 976.106 288.392 976.106 286.451C976.106 284.841 976.556 283.433 977.455 282.225C978.355 281.018 979.598 280.077 981.184 279.402C982.77 278.715 984.587 278.372 986.635 278.372C989.582 278.372 991.902 279.011 993.595 280.29C995.288 281.556 996.406 283.255 996.951 285.386ZM1008.63 289.807V306H1003.32V269.636H1008.56V283.166H1008.9C1009.54 281.698 1010.51 280.532 1011.83 279.668C1013.14 278.804 1014.86 278.372 1016.97 278.372C1018.85 278.372 1020.48 278.757 1021.88 279.526C1023.28 280.296 1024.37 281.444 1025.14 282.971C1025.92 284.486 1026.31 286.38 1026.31 288.653V306H1021.01V289.292C1021.01 287.291 1020.49 285.741 1019.46 284.64C1018.43 283.527 1017 282.971 1015.16 282.971C1013.91 282.971 1012.78 283.237 1011.79 283.77C1010.81 284.303 1010.03 285.084 1009.46 286.114C1008.91 287.132 1008.63 288.363 1008.63 289.807ZM1044.89 306.55C1042.33 306.55 1040.1 305.964 1038.19 304.793C1036.29 303.621 1034.81 301.981 1033.75 299.874C1032.7 297.767 1032.17 295.305 1032.17 292.488C1032.17 289.659 1032.7 287.185 1033.75 285.066C1034.81 282.947 1036.29 281.302 1038.19 280.13C1040.1 278.958 1042.33 278.372 1044.89 278.372C1047.44 278.372 1049.68 278.958 1051.58 280.13C1053.49 281.302 1054.97 282.947 1056.02 285.066C1057.07 287.185 1057.6 289.659 1057.6 292.488C1057.6 295.305 1057.07 297.767 1056.02 299.874C1054.97 301.981 1053.49 303.621 1051.58 304.793C1049.68 305.964 1047.44 306.55 1044.89 306.55ZM1044.9 302.094C1046.56 302.094 1047.93 301.656 1049.02 300.78C1050.11 299.904 1050.92 298.738 1051.44 297.282C1051.97 295.826 1052.24 294.222 1052.24 292.47C1052.24 290.73 1051.97 289.132 1051.44 287.676C1050.92 286.208 1050.11 285.031 1049.02 284.143C1047.93 283.255 1046.56 282.811 1044.9 282.811C1043.24 282.811 1041.85 283.255 1040.75 284.143C1039.66 285.031 1038.85 286.208 1038.32 287.676C1037.8 289.132 1037.54 290.73 1037.54 292.47C1037.54 294.222 1037.8 295.826 1038.32 297.282C1038.85 298.738 1039.66 299.904 1040.75 300.78C1041.85 301.656 1043.24 302.094 1044.9 302.094ZM1063.53 316.227V278.727H1068.71V283.148H1069.15C1069.46 282.58 1069.91 281.923 1070.49 281.178C1071.07 280.432 1071.87 279.781 1072.9 279.224C1073.93 278.656 1075.29 278.372 1076.98 278.372C1079.19 278.372 1081.15 278.929 1082.88 280.041C1084.61 281.154 1085.96 282.758 1086.95 284.853C1087.94 286.948 1088.44 289.469 1088.44 292.417C1088.44 295.364 1087.95 297.892 1086.96 299.999C1085.98 302.094 1084.63 303.71 1082.92 304.846C1081.2 305.97 1079.24 306.533 1077.04 306.533C1075.38 306.533 1074.03 306.254 1072.97 305.698C1071.93 305.142 1071.11 304.491 1070.52 303.745C1069.93 302.999 1069.47 302.336 1069.15 301.756H1068.83V316.227H1063.53ZM1068.73 292.364C1068.73 294.281 1069.01 295.962 1069.56 297.406C1070.12 298.85 1070.92 299.981 1071.98 300.798C1073.03 301.603 1074.32 302.005 1075.85 302.005C1077.43 302.005 1078.76 301.585 1079.83 300.744C1080.89 299.892 1081.7 298.738 1082.24 297.282C1082.8 295.826 1083.07 294.187 1083.07 292.364C1083.07 290.564 1082.8 288.949 1082.26 287.516C1081.73 286.084 1080.92 284.954 1079.84 284.125C1078.78 283.296 1077.45 282.882 1075.85 282.882C1074.31 282.882 1073.01 283.279 1071.94 284.072C1070.89 284.865 1070.09 285.972 1069.55 287.392C1069 288.812 1068.73 290.47 1068.73 292.364ZM1120.6 278.727V282.989H1105.19V278.727H1120.6ZM1109.41 306V275.567C1109.41 273.862 1109.78 272.448 1110.53 271.323C1111.28 270.187 1112.26 269.34 1113.49 268.784C1114.73 268.216 1116.06 267.932 1117.51 267.932C1118.57 267.932 1119.48 268.021 1120.24 268.198C1121 268.364 1121.56 268.518 1121.93 268.66L1120.69 272.957C1120.44 272.886 1120.12 272.803 1119.73 272.708C1119.34 272.602 1118.86 272.548 1118.31 272.548C1117.02 272.548 1116.09 272.868 1115.54 273.507C1114.99 274.146 1114.72 275.07 1114.72 276.277V306H1109.41ZM1136.49 306.55C1133.93 306.55 1131.7 305.964 1129.79 304.793C1127.89 303.621 1126.41 301.981 1125.36 299.874C1124.3 297.767 1123.78 295.305 1123.78 292.488C1123.78 289.659 1124.3 287.185 1125.36 285.066C1126.41 282.947 1127.89 281.302 1129.79 280.13C1131.7 278.958 1133.93 278.372 1136.49 278.372C1139.05 278.372 1141.28 278.958 1143.18 280.13C1145.09 281.302 1146.57 282.947 1147.62 285.066C1148.67 287.185 1149.2 289.659 1149.2 292.488C1149.2 295.305 1148.67 297.767 1147.62 299.874C1146.57 301.981 1145.09 303.621 1143.18 304.793C1141.28 305.964 1139.05 306.55 1136.49 306.55ZM1136.51 302.094C1138.16 302.094 1139.54 301.656 1140.63 300.78C1141.71 299.904 1142.52 298.738 1143.04 297.282C1143.57 295.826 1143.84 294.222 1143.84 292.47C1143.84 290.73 1143.57 289.132 1143.04 287.676C1142.52 286.208 1141.71 285.031 1140.63 284.143C1139.54 283.255 1138.16 282.811 1136.51 282.811C1134.84 282.811 1133.45 283.255 1132.35 284.143C1131.26 285.031 1130.45 286.208 1129.92 287.676C1129.4 289.132 1129.14 290.73 1129.14 292.47C1129.14 294.222 1129.4 295.826 1129.92 297.282C1130.45 298.738 1131.26 299.904 1132.35 300.78C1133.45 301.656 1134.84 302.094 1136.51 302.094ZM1155.13 306V278.727H1160.26V283.06H1160.54C1161.04 281.592 1161.92 280.438 1163.17 279.597C1164.44 278.745 1165.87 278.319 1167.47 278.319C1167.8 278.319 1168.19 278.331 1168.64 278.354C1169.1 278.378 1169.46 278.408 1169.72 278.443V283.521C1169.51 283.462 1169.13 283.397 1168.59 283.326C1168.04 283.243 1167.5 283.202 1166.95 283.202C1165.7 283.202 1164.58 283.468 1163.6 284.001C1162.63 284.522 1161.86 285.25 1161.29 286.185C1160.72 287.108 1160.44 288.161 1160.44 289.345V306H1155.13ZM644.323 367.55C641.636 367.55 639.322 366.976 637.381 365.828C635.451 364.668 633.96 363.04 632.906 360.945C631.865 358.838 631.344 356.37 631.344 353.541C631.344 350.748 631.865 348.286 632.906 346.155C633.96 344.024 635.428 342.361 637.31 341.165C639.204 339.97 641.417 339.372 643.95 339.372C645.489 339.372 646.981 339.627 648.425 340.136C649.869 340.645 651.165 341.444 652.313 342.533C653.461 343.622 654.367 345.036 655.03 346.776C655.693 348.504 656.024 350.606 656.024 353.08V354.962H634.344V350.984H650.822C650.822 349.588 650.538 348.351 649.969 347.273C649.401 346.184 648.602 345.326 647.572 344.699C646.554 344.071 645.359 343.758 643.986 343.758C642.494 343.758 641.192 344.125 640.08 344.859C638.979 345.581 638.126 346.528 637.523 347.7C636.931 348.86 636.635 350.12 636.635 351.482V354.589C636.635 356.412 636.955 357.962 637.594 359.241C638.245 360.519 639.15 361.496 640.31 362.17C641.47 362.833 642.826 363.165 644.376 363.165C645.383 363.165 646.3 363.023 647.129 362.739C647.957 362.443 648.673 362.005 649.277 361.425C649.881 360.845 650.342 360.129 650.662 359.276L655.687 360.182C655.284 361.661 654.562 362.958 653.521 364.07C652.491 365.171 651.195 366.029 649.632 366.645C648.081 367.249 646.312 367.55 644.323 367.55ZM684.464 339.727L674.574 367H668.893L658.985 339.727H664.684L671.591 360.714H671.876L678.765 339.727H684.464ZM700.28 367.55C697.593 367.55 695.279 366.976 693.338 365.828C691.408 364.668 689.917 363.04 688.863 360.945C687.822 358.838 687.301 356.37 687.301 353.541C687.301 350.748 687.822 348.286 688.863 346.155C689.917 344.024 691.385 342.361 693.267 341.165C695.161 339.97 697.374 339.372 699.907 339.372C701.446 339.372 702.938 339.627 704.382 340.136C705.826 340.645 707.122 341.444 708.27 342.533C709.418 343.622 710.324 345.036 710.987 346.776C711.65 348.504 711.981 350.606 711.981 353.08V354.962H690.301V350.984H706.779C706.779 349.588 706.495 348.351 705.926 347.273C705.358 346.184 704.559 345.326 703.529 344.699C702.511 344.071 701.316 343.758 699.943 343.758C698.451 343.758 697.149 344.125 696.037 344.859C694.936 345.581 694.083 346.528 693.48 347.7C692.888 348.86 692.592 350.12 692.592 351.482V354.589C692.592 356.412 692.912 357.962 693.551 359.241C694.202 360.519 695.107 361.496 696.267 362.17C697.427 362.833 698.783 363.165 700.333 363.165C701.34 363.165 702.257 363.023 703.086 362.739C703.914 362.443 704.63 362.005 705.234 361.425C705.838 360.845 706.299 360.129 706.619 359.276L711.644 360.182C711.241 361.661 710.519 362.958 709.478 364.07C708.448 365.171 707.152 366.029 705.589 366.645C704.038 367.249 702.269 367.55 700.28 367.55ZM717.872 367V339.727H723.003V344.06H723.287C723.784 342.592 724.66 341.438 725.915 340.597C727.182 339.745 728.614 339.319 730.212 339.319C730.543 339.319 730.934 339.331 731.384 339.354C731.845 339.378 732.206 339.408 732.467 339.443V344.521C732.254 344.462 731.875 344.397 731.33 344.326C730.786 344.243 730.241 344.202 729.697 344.202C728.442 344.202 727.324 344.468 726.341 345.001C725.37 345.522 724.601 346.25 724.033 347.185C723.465 348.108 723.181 349.161 723.181 350.345V367H717.872ZM741.247 377.227C740.454 377.227 739.732 377.162 739.081 377.032C738.43 376.914 737.944 376.783 737.625 376.641L738.903 372.291C739.874 372.552 740.738 372.664 741.496 372.629C742.253 372.593 742.922 372.309 743.502 371.776C744.094 371.244 744.615 370.374 745.064 369.166L745.721 367.355L735.743 339.727H741.425L748.331 360.892H748.616L755.523 339.727H761.222L749.983 370.64C749.462 372.06 748.799 373.262 747.994 374.244C747.189 375.239 746.23 375.984 745.118 376.482C744.005 376.979 742.715 377.227 741.247 377.227ZM778.942 339.727V343.989H764.045V339.727H778.942ZM768.04 333.193H773.349V358.992C773.349 360.022 773.503 360.797 773.811 361.318C774.119 361.827 774.515 362.176 775.001 362.366C775.498 362.543 776.036 362.632 776.616 362.632C777.042 362.632 777.415 362.603 777.735 362.543C778.055 362.484 778.303 362.437 778.481 362.401L779.439 366.787C779.132 366.905 778.694 367.024 778.126 367.142C777.557 367.272 776.847 367.343 775.995 367.355C774.598 367.379 773.296 367.13 772.089 366.609C770.881 366.089 769.905 365.284 769.159 364.195C768.413 363.106 768.04 361.738 768.04 360.093V333.193ZM790.71 350.807V367H785.401V330.636H790.639V344.166H790.976C791.615 342.698 792.592 341.532 793.906 340.668C795.22 339.804 796.936 339.372 799.055 339.372C800.925 339.372 802.559 339.757 803.956 340.526C805.364 341.296 806.453 342.444 807.223 343.971C808.004 345.486 808.395 347.38 808.395 349.653V367H803.086V350.292C803.086 348.291 802.571 346.741 801.541 345.64C800.511 344.527 799.079 343.971 797.244 343.971C795.989 343.971 794.865 344.237 793.87 344.77C792.888 345.303 792.113 346.084 791.544 347.114C790.988 348.132 790.71 349.363 790.71 350.807ZM815.479 367V339.727H820.788V367H815.479ZM818.16 335.519C817.237 335.519 816.444 335.211 815.781 334.596C815.13 333.969 814.804 333.223 814.804 332.359C814.804 331.483 815.13 330.737 815.781 330.121C816.444 329.494 817.237 329.18 818.16 329.18C819.083 329.18 819.871 329.494 820.522 330.121C821.185 330.737 821.516 331.483 821.516 332.359C821.516 333.223 821.185 333.969 820.522 334.596C819.871 335.211 819.083 335.519 818.16 335.519ZM833.239 350.807V367H827.93V339.727H833.026V344.166H833.363C833.991 342.722 834.973 341.562 836.311 340.686C837.66 339.81 839.359 339.372 841.407 339.372C843.265 339.372 844.893 339.763 846.29 340.544C847.686 341.313 848.769 342.462 849.539 343.989C850.308 345.516 850.693 347.404 850.693 349.653V367H845.384V350.292C845.384 348.315 844.869 346.77 843.839 345.658C842.809 344.533 841.395 343.971 839.596 343.971C838.365 343.971 837.27 344.237 836.311 344.77C835.364 345.303 834.612 346.084 834.056 347.114C833.511 348.132 833.239 349.363 833.239 350.807ZM869.248 377.795C867.081 377.795 865.217 377.511 863.655 376.943C862.104 376.375 860.837 375.623 859.855 374.688C858.872 373.753 858.139 372.729 857.653 371.616L862.216 369.734C862.536 370.255 862.962 370.806 863.495 371.386C864.039 371.978 864.773 372.481 865.697 372.895C866.632 373.309 867.833 373.516 869.301 373.516C871.313 373.516 872.976 373.025 874.29 372.043C875.604 371.072 876.261 369.521 876.261 367.391V362.028H875.924C875.604 362.608 875.143 363.254 874.539 363.964C873.947 364.674 873.13 365.29 872.089 365.81C871.047 366.331 869.692 366.592 868.023 366.592C865.868 366.592 863.927 366.089 862.199 365.082C860.482 364.064 859.121 362.567 858.115 360.59C857.121 358.602 856.623 356.157 856.623 353.257C856.623 350.357 857.115 347.871 858.097 345.8C859.091 343.728 860.453 342.142 862.181 341.041C863.909 339.929 865.868 339.372 868.058 339.372C869.751 339.372 871.118 339.656 872.16 340.224C873.201 340.781 874.012 341.432 874.592 342.178C875.184 342.923 875.64 343.58 875.959 344.148H876.35V339.727H881.552V367.604C881.552 369.947 881.008 371.871 879.919 373.374C878.83 374.878 877.356 375.99 875.498 376.712C873.651 377.434 871.568 377.795 869.248 377.795ZM869.194 362.188C870.721 362.188 872.012 361.833 873.065 361.123C874.131 360.401 874.935 359.371 875.48 358.033C876.036 356.684 876.314 355.068 876.314 353.186C876.314 351.351 876.042 349.736 875.498 348.339C874.953 346.942 874.154 345.853 873.101 345.072C872.047 344.279 870.745 343.882 869.194 343.882C867.596 343.882 866.265 344.296 865.199 345.125C864.134 345.942 863.329 347.054 862.785 348.463C862.252 349.872 861.986 351.446 861.986 353.186C861.986 354.973 862.258 356.542 862.802 357.891C863.347 359.241 864.152 360.294 865.217 361.052C866.294 361.809 867.62 362.188 869.194 362.188ZM922.342 346.386L917.53 347.238C917.329 346.622 917.009 346.036 916.571 345.48C916.145 344.924 915.565 344.468 914.831 344.113C914.097 343.758 913.18 343.58 912.079 343.58C910.576 343.58 909.321 343.918 908.315 344.592C907.308 345.255 906.805 346.113 906.805 347.167C906.805 348.078 907.143 348.812 907.817 349.369C908.492 349.925 909.581 350.381 911.085 350.736L915.417 351.73C917.926 352.31 919.797 353.204 921.028 354.411C922.259 355.619 922.874 357.187 922.874 359.116C922.874 360.75 922.401 362.206 921.454 363.484C920.519 364.751 919.211 365.745 917.53 366.467C915.861 367.189 913.925 367.55 911.724 367.55C908.67 367.55 906.178 366.899 904.249 365.597C902.319 364.283 901.135 362.419 900.697 360.004L905.829 359.223C906.148 360.561 906.805 361.573 907.8 362.259C908.794 362.934 910.09 363.271 911.688 363.271C913.428 363.271 914.819 362.91 915.861 362.188C916.902 361.454 917.423 360.561 917.423 359.507C917.423 358.655 917.104 357.939 916.464 357.359C915.837 356.779 914.872 356.341 913.57 356.045L908.954 355.033C906.409 354.453 904.527 353.529 903.308 352.263C902.1 350.996 901.496 349.392 901.496 347.451C901.496 345.841 901.946 344.433 902.846 343.225C903.746 342.018 904.988 341.077 906.575 340.402C908.161 339.715 909.978 339.372 912.026 339.372C914.973 339.372 917.293 340.011 918.986 341.29C920.679 342.556 921.797 344.255 922.342 346.386ZM928.711 377.227V339.727H933.896V344.148H934.34C934.648 343.58 935.092 342.923 935.672 342.178C936.252 341.432 937.057 340.781 938.086 340.224C939.116 339.656 940.478 339.372 942.17 339.372C944.372 339.372 946.337 339.929 948.065 341.041C949.793 342.154 951.149 343.758 952.131 345.853C953.126 347.948 953.623 350.469 953.623 353.417C953.623 356.364 953.131 358.892 952.149 360.999C951.166 363.094 949.817 364.71 948.101 365.846C946.384 366.97 944.425 367.533 942.224 367.533C940.566 367.533 939.211 367.254 938.157 366.698C937.116 366.142 936.299 365.491 935.707 364.745C935.115 363.999 934.66 363.336 934.34 362.756H934.02V377.227H928.711ZM933.914 353.364C933.914 355.281 934.192 356.962 934.748 358.406C935.305 359.85 936.11 360.981 937.163 361.798C938.217 362.603 939.507 363.005 941.034 363.005C942.62 363.005 943.946 362.585 945.011 361.744C946.077 360.892 946.881 359.738 947.426 358.282C947.982 356.826 948.26 355.187 948.26 353.364C948.26 351.564 947.988 349.949 947.444 348.516C946.911 347.084 946.106 345.954 945.029 345.125C943.964 344.296 942.632 343.882 941.034 343.882C939.495 343.882 938.193 344.279 937.128 345.072C936.074 345.865 935.275 346.972 934.731 348.392C934.186 349.812 933.914 351.47 933.914 353.364ZM967.508 367.604C965.779 367.604 964.217 367.284 962.82 366.645C961.423 365.994 960.317 365.053 959.5 363.822C958.695 362.591 958.292 361.081 958.292 359.294C958.292 357.755 958.588 356.489 959.18 355.494C959.772 354.5 960.571 353.713 961.577 353.133C962.583 352.553 963.708 352.115 964.951 351.819C966.194 351.523 967.46 351.298 968.751 351.144C970.384 350.955 971.71 350.801 972.728 350.683C973.746 350.552 974.486 350.345 974.947 350.061C975.409 349.777 975.64 349.315 975.64 348.676V348.552C975.64 347.001 975.202 345.8 974.326 344.947C973.462 344.095 972.171 343.669 970.455 343.669C968.668 343.669 967.259 344.066 966.229 344.859C965.211 345.64 964.507 346.51 964.116 347.469L959.127 346.332C959.719 344.675 960.583 343.338 961.719 342.32C962.867 341.29 964.187 340.544 965.679 340.082C967.17 339.609 968.739 339.372 970.384 339.372C971.473 339.372 972.627 339.502 973.846 339.763C975.077 340.011 976.226 340.473 977.291 341.148C978.368 341.822 979.25 342.787 979.937 344.042C980.623 345.285 980.966 346.901 980.966 348.889V367H975.782V363.271H975.569C975.225 363.958 974.711 364.633 974.024 365.295C973.337 365.958 972.456 366.509 971.378 366.947C970.301 367.385 969.011 367.604 967.508 367.604ZM968.662 363.342C970.13 363.342 971.384 363.052 972.426 362.472C973.479 361.892 974.278 361.135 974.823 360.2C975.379 359.253 975.657 358.241 975.657 357.163V353.648C975.468 353.837 975.101 354.015 974.557 354.18C974.024 354.334 973.414 354.47 972.728 354.589C972.041 354.695 971.372 354.796 970.721 354.891C970.07 354.973 969.526 355.045 969.088 355.104C968.058 355.234 967.117 355.453 966.265 355.761C965.424 356.068 964.75 356.512 964.241 357.092C963.743 357.661 963.495 358.418 963.495 359.365C963.495 360.679 963.98 361.673 964.951 362.348C965.921 363.011 967.158 363.342 968.662 363.342ZM999.526 367.55C996.886 367.55 994.613 366.953 992.707 365.757C990.813 364.55 989.357 362.887 988.339 360.768C987.321 358.649 986.812 356.222 986.812 353.488C986.812 350.718 987.333 348.274 988.375 346.155C989.417 344.024 990.884 342.361 992.778 341.165C994.672 339.97 996.904 339.372 999.472 339.372C1001.54 339.372 1003.39 339.757 1005.01 340.526C1006.63 341.284 1007.94 342.349 1008.94 343.722C1009.94 345.095 1010.54 346.699 1010.73 348.534H1005.56C1005.28 347.256 1004.63 346.155 1003.61 345.232C1002.6 344.308 1001.25 343.847 999.561 343.847C998.081 343.847 996.785 344.237 995.673 345.018C994.572 345.788 993.714 346.889 993.098 348.321C992.482 349.741 992.175 351.422 992.175 353.364C992.175 355.352 992.477 357.069 993.08 358.513C993.684 359.957 994.536 361.076 995.637 361.869C996.75 362.662 998.058 363.058 999.561 363.058C1000.57 363.058 1001.48 362.875 1002.3 362.508C1003.12 362.129 1003.82 361.59 1004.37 360.892C1004.94 360.194 1005.34 359.353 1005.56 358.371H1010.73C1010.54 360.134 1009.97 361.709 1009.01 363.094C1008.05 364.479 1006.76 365.568 1005.15 366.361C1003.56 367.154 1001.68 367.55 999.526 367.55ZM1028.16 367.55C1025.47 367.55 1023.16 366.976 1021.22 365.828C1019.29 364.668 1017.8 363.04 1016.74 360.945C1015.7 358.838 1015.18 356.37 1015.18 353.541C1015.18 350.748 1015.7 348.286 1016.74 346.155C1017.8 344.024 1019.27 342.361 1021.15 341.165C1023.04 339.97 1025.26 339.372 1027.79 339.372C1029.33 339.372 1030.82 339.627 1032.26 340.136C1033.71 340.645 1035 341.444 1036.15 342.533C1037.3 343.622 1038.2 345.036 1038.87 346.776C1039.53 348.504 1039.86 350.606 1039.86 353.08V354.962H1018.18V350.984H1034.66C1034.66 349.588 1034.38 348.351 1033.81 347.273C1033.24 346.184 1032.44 345.326 1031.41 344.699C1030.39 344.071 1029.2 343.758 1027.82 343.758C1026.33 343.758 1025.03 344.125 1023.92 344.859C1022.82 345.581 1021.96 346.528 1021.36 347.7C1020.77 348.86 1020.47 350.12 1020.47 351.482V354.589C1020.47 356.412 1020.79 357.962 1021.43 359.241C1022.08 360.519 1022.99 361.496 1024.15 362.17C1025.31 362.833 1026.66 363.165 1028.21 363.165C1029.22 363.165 1030.14 363.023 1030.97 362.739C1031.8 362.443 1032.51 362.005 1033.11 361.425C1033.72 360.845 1034.18 360.129 1034.5 359.276L1039.52 360.182C1039.12 361.661 1038.4 362.958 1037.36 364.07C1036.33 365.171 1035.03 366.029 1033.47 366.645C1031.92 367.249 1030.15 367.55 1028.16 367.55ZM1049.25 367.337C1048.28 367.337 1047.45 366.994 1046.75 366.308C1046.05 365.609 1045.7 364.769 1045.7 363.786C1045.7 362.816 1046.05 361.987 1046.75 361.3C1047.45 360.602 1048.28 360.253 1049.25 360.253C1050.22 360.253 1051.06 360.602 1051.75 361.3C1052.45 361.987 1052.8 362.816 1052.8 363.786C1052.8 364.437 1052.64 365.035 1052.3 365.58C1051.98 366.112 1051.56 366.538 1051.03 366.858C1050.49 367.178 1049.9 367.337 1049.25 367.337Z" fill="#E0E0E0"/>
<defs>
<linearGradient id="paint0_linear_2_2" x1="329" y1="125" x2="579" y2="375" gradientUnits="userSpaceOnUse">
<stop stop-color="#FFE351"/>
<stop offset="0.418142" stop-color="#FF9A51"/>
<stop offset="1" stop-color="#B77EFF"/>
</linearGradient>
</defs>
</svg>
