<svg width="500" height="500" viewBox="0 0 500 500" fill="none" xmlns="http://www.w3.org/2000/svg">
    <path fill="#f0f0f0" d="M422.097 105.052L431.654 96.9948C429.031 93.8838 425.058 92.2442 421.004 92.5999C416.951 92.9557 413.324 95.2623 411.283 98.7826L422.097 105.052ZM132.326 441.813L124.569 432.011C121.369 434.543 119.607 438.478 119.848 442.551C120.089 446.625 122.303 450.324 125.78 452.461L132.326 441.813ZM85.2948 403.289L76.1465 411.807C80.1692 416.128 86.666 417.045 91.7275 414.007L85.2948 403.289ZM421.472 104.314L431.137 112.241C434.97 107.568 434.91 100.821 430.994 96.2158L421.472 104.314ZM462.5 250C462.5 367.361 367.361 462.5 250 462.5V487.5C381.168 487.5 487.5 381.168 487.5 250H462.5ZM412.54 113.109C443.721 150.092 462.5 197.837 462.5 250H487.5C487.5 191.722 466.493 138.318 431.654 96.9948L412.54 113.109ZM140.083 451.615C291.941 331.446 393.639 179.06 432.911 111.322L411.283 98.7826C372.873 165.035 273.05 314.514 124.569 432.011L140.083 451.615ZM250 462.5C209.24 462.5 171.197 451.037 138.873 431.164L125.78 452.461C161.928 474.685 204.487 487.5 250 487.5V462.5ZM94.4432 394.771C59.102 356.815 37.5 305.944 37.5 250H12.5C12.5 312.512 36.6679 369.408 76.1465 411.807L94.4432 394.771ZM37.5 250C37.5 132.639 132.639 37.5 250 37.5V12.5C118.832 12.5 12.5 118.832 12.5 250H37.5ZM250 37.5C314.876 37.5 372.953 66.5575 411.95 112.412L430.994 96.2158C387.45 45.0146 322.516 12.5 250 12.5V37.5ZM411.807 96.3865C298.838 234.111 192.609 324.302 78.8622 392.572L91.7275 414.007C208.196 344.104 316.555 251.932 431.137 112.241L411.807 96.3865Z" />
</svg>
