<svg width="1500" height="830" viewBox="0 0 1500 830" fill="none" xmlns="http://www.w3.org/2000/svg">
<path d="M649.229 553.043C649.229 607.385 605.301 651.381 551.183 651.381C497.064 651.381 453.136 607.385 453.136 553.043C453.136 498.701 497.064 454.704 551.183 454.704C605.301 454.704 649.229 498.701 649.229 553.043Z" stroke="#313131" stroke-width="25"/>
<path d="M1047.2 553.043C1047.2 607.385 1003.27 651.381 949.149 651.381C895.031 651.381 851.103 607.385 851.103 553.043C851.103 498.701 895.031 454.704 949.149 454.704C1003.27 454.704 1047.2 498.701 1047.2 553.043Z" stroke="#313131" stroke-width="25"/>
<path d="M848.211 170.65C848.211 224.992 804.284 268.989 750.165 268.989C696.047 268.989 652.119 224.992 652.119 170.65C652.119 116.308 696.047 72.3116 750.165 72.3116C804.284 72.3116 848.211 116.308 848.211 170.65Z" stroke="#313131" stroke-width="25"/>
<path d="M729.111 370.159C729.111 395.269 708.817 415.579 683.838 415.579C658.86 415.579 638.565 395.269 638.565 370.159C638.565 345.05 658.86 324.74 683.838 324.74C708.817 324.74 729.111 345.05 729.111 370.159Z" stroke="#313131" stroke-width="20"/>
<path d="M861.767 370.159C861.767 395.269 841.472 415.579 816.494 415.579C791.515 415.579 771.22 395.269 771.22 370.159C771.22 345.05 791.515 324.74 816.494 324.74C841.472 324.74 861.767 345.05 861.767 370.159Z" stroke="#313131" stroke-width="20"/>
<path d="M795.438 492.082C795.438 517.191 775.144 537.501 750.165 537.501C725.187 537.501 704.892 517.191 704.892 492.082C704.892 466.972 725.187 446.662 750.165 446.662C775.144 446.662 795.438 466.972 795.438 492.082Z" stroke="#313131" stroke-width="20"/>
<path d="M1144.71 415C1144.71 633.173 968.048 810 750.166 810C532.284 810 355.618 633.173 355.618 415C355.618 196.827 532.284 20 750.166 20C968.048 20 1144.71 196.827 1144.71 415Z" stroke="#212121" stroke-width="40"/>
<rect x="1160.07" y="390.432" width="339.929" height="49.8" fill="#212121"/>
<rect y="390.432" width="339.929" height="49.8" fill="#212121"/>
</svg>
